<?xml version="1.0" encoding="UTF-8"?>
<svg width="32" height="32" viewBox="0 0 32 32" fill="none" xmlns="http://www.w3.org/2000/svg">
  <!-- Background circle with gradient -->
  <circle cx="16" cy="16" r="15" fill="url(#gradient)" stroke="#3b82f6" stroke-width="2"/>
  
  <!-- Document icon -->
  <path d="M10 8a2 2 0 0 1 2-2h6l4 4v10a2 2 0 0 1-2 2H12a2 2 0 0 1-2-2V8z" fill="#ffffff" stroke="#3b82f6" stroke-width="1.5"/>
  <path d="M18 6v4h4" fill="none" stroke="#3b82f6" stroke-width="1.5"/>
  
  <!-- Document lines -->
  <line x1="13" y1="12" x2="19" y2="12" stroke="#3b82f6" stroke-width="1"/>
  <line x1="13" y1="15" x2="19" y2="15" stroke="#3b82f6" stroke-width="1"/>
  <line x1="13" y1="18" x2="16" y2="18" stroke="#3b82f6" stroke-width="1"/>
  
  <!-- Stars -->
  <path d="M24 6l1 2 2-1-2 1 1 2-1-2-2 1 2-1z" fill="#fbbf24"/>
  <path d="M26 10l0.5 1 1-0.5-1 0.5 0.5 1-0.5-1-1 0.5 1-0.5z" fill="#fbbf24"/>
  
  <!-- Gradient definition -->
  <defs>
    <linearGradient id="gradient" x1="0%" y1="0%" x2="100%" y2="100%">
      <stop offset="0%" style="stop-color:#3b82f6;stop-opacity:0.1"/>
      <stop offset="100%" style="stop-color:#8b5cf6;stop-opacity:0.1"/>
    </linearGradient>
  </defs>
</svg>